<svg xmlns="http://www.w3.org/2000/svg" xmlns:xlink="http://www.w3.org/1999/xlink" width="230" height="60" viewBox="0 0 230 60"><defs><path id="zvt3a" d="M378.68 75.27L375 85h24.78c6.77 0 10.7-2.2 12-6.72.02 0 2.58-7.17 2.58-7.17l.45-1.6a6.7 6.7 0 0 0 .1-2.15c-.17-1.55-.98-4.15-4.43-4.15h-16.62l.97-2.37c.33-.3.67-.57 1.05-.75.46-.2.98-.3 1.43-.3h21.03l3.72-9.79h-24.22l-2.62.12-2.48.3c-3.53.6-6.1 2.73-7.66 6.35l-.03.04-2.47 6.87a8.27 8.27 0 0 0-.63 3.97c.17 1.5.94 4.02 4.19 4.02h16.74c-.53 1.45-.95 2.33-1.04 2.55a3.54 3.54 0 0 1-2.49 1.05z"/><path id="zvt3b" d="M424.82 50l-3.68 9.79h11.72L423.58 85h10.57l9.5-25.21h10.8l3.6-9.79z"/><path id="zvt3c" d="M538.76 50L525.4 85h11.25l5.8-15.2h12.37c-.24.56-5.8 15.2-5.8 15.2h11.37l13-34.77H562s-4.1 11.5-4.63 12.93h-12.3L549.9 50h-11.15z"/><path id="zvt3d" d="M576.45 50l-9.22 25.03-.02.05a7.35 7.35 0 0 0-.22 3.04c.08.68.22 1.34.44 1.96 1.11 3.3 4.14 4.92 9.25 4.92h20.78l4.54-9.79h-23.95c1.52-3.97 9.3-25.21 9.3-25.21h-10.9z"/><path id="zvt3e" d="M493.08 56.39c-.33-3.74-3.36-6.6-6.93-6.38h-.02l-23.43.05-9.37 24.75L449.74 85h10.91l5.74-15.15h7.25a2601 2601 0 0 0 1.9 15.15h10.32l-1.77-15.2h.24c2.95-.06 5-1.42 6.1-4.08l2.34-6.44v-.02c.28-.88.4-1.85.31-2.87m-11.5 5.88c-.16.39-.49.91-1.46.91h-11.13c.33-.75 1.1-2.83 1.1-2.83l.2-.53h11.9l.2.07c-.22.6-.81 2.38-.81 2.38"/><path id="zvt3f" d="M530.94 58.01a7.86 7.86 0 0 0-7.66-7.95h-.22L506.19 50c-2.9-.03-4.87.74-6.56 2.75-.71.85-1.53 2.82-1.53 2.82L486.65 85h11.46s5.68-15.19 5.77-15.19h12.16c.08-.2.68-1.51-5.67 15.19h11.4l8.68-24.13c.32-.88.5-1.85.5-2.86m-12.42 5.17h-12.1c.2-.49.34-1.1.79-2.2.5-1.08 1.74-1.16 2.7-1.16 0 0 6.77-.03 9.75 0-.1.27-.6 1.9-1.14 3.36"/><path id="zvt3g" d="M380.1 101.64l-1.4-3.9c-.32-.89-.53-1.7-.74-2.48h-.05c-.2.8-.44 1.63-.72 2.46l-1.4 3.92zm-4.7 1.37l-1.49 4.27H372l4.87-13.57h2.24l4.89 13.57h-1.98l-1.53-4.27z"/><path id="zvt3h" d="M397.26 100.92h-5.1v4.9h5.68v1.46h-7.38V93.71h7.1v1.47h-5.4v4.29h5.1z"/><path id="zvt3i" d="M400.62 107.28V93.71h1.9l4.34 6.87c1 1.59 1.79 3.02 2.43 4.4l.04-.01c-.16-1.82-.2-3.47-.2-5.58V93.7h1.64v13.57h-1.76l-4.3-6.89a43.01 43.01 0 0 1-2.52-4.53l-.07.02c.1 1.72.15 3.35.15 5.6v5.8z"/><path id="zvt3j" d="M420.34 100.92h-5.1v4.9h5.68v1.46h-7.38V93.71h7.1v1.47h-5.4v4.29h5.1z"/><path id="zvt3k" d="M425.52 100.12h1.87c1.96 0 3.2-1.02 3.2-2.55 0-1.74-1.33-2.5-3.26-2.52-.89 0-1.52.08-1.81.16zM423.69 94c.92-.18 2.25-.28 3.51-.28 1.96 0 3.22.34 4.1 1.1.72.6 1.12 1.52 1.12 2.56 0 1.78-1.18 2.96-2.67 3.44v.06c1.09.36 1.74 1.32 2.08 2.71.46 1.88.8 3.18 1.1 3.7h-1.9c-.23-.38-.55-1.54-.95-3.22-.42-1.85-1.18-2.55-2.84-2.61h-1.72v5.83h-1.83V94z"/><path id="zvt3l" d="M445.85 107.4c-.78.3-2.33.79-4.15.79-2.04 0-3.73-.55-5.05-1.88-1.16-1.17-1.88-3.07-1.88-5.28.02-4.23 2.78-7.32 7.31-7.32a8 8 0 0 1 3.37.65l-.42 1.5a6.72 6.72 0 0 0-2.99-.61c-3.28 0-5.43 2.14-5.43 5.7 0 3.6 2.07 5.72 5.21 5.72 1.14 0 1.92-.17 2.32-.38v-4.23h-2.74v-1.47h4.45v6.82z"/><path id="zvt3m" d="M448.62 107.28V93.71h1.85v13.57z"/><path id="zvt3n" d="M460.42 101.64l-1.4-3.9c-.33-.89-.54-1.7-.75-2.48h-.05c-.2.8-.44 1.63-.72 2.46l-1.4 3.92zm-4.7 1.37l-1.5 4.27h-1.91l4.87-13.57h2.24l4.89 13.57h-1.98l-1.53-4.27z"/><path id="zvt3o" d="M480.76 100.88c0-2.8-1.46-5.7-4.44-5.7-3.06 0-4.56 2.83-4.53 5.86-.03 2.97 1.62 5.65 4.45 5.65 2.9 0 4.52-2.61 4.52-5.81zm1.5 9.12a75.6 75.6 0 0 1-5.38-1.62c-.29-.1-.58-.21-.85-.21-3.33-.13-6.18-2.58-6.18-7.09 0-4.48 2.75-7.37 6.53-7.37 3.81 0 6.29 2.95 6.29 7.08 0 3.6-1.67 5.9-4 6.71v.09c1.4.35 2.92.68 4.1.89z"/><path id="zvt3p" d="M486.42 93.71v7.9c0 3 1.37 4.26 3.2 4.26 2.05 0 3.36-1.3 3.36-4.25V93.7h1.8v7.79c0 4.1-2.23 5.78-5.22 5.78-2.81 0-4.94-1.56-4.94-5.7V93.7h1.8z"/><path id="zvt3q" d="M505.26 100.92h-5.1v4.9h5.68v1.46h-7.38V93.71h7.1v1.47h-5.4v4.29h5.1z"/><path id="zvt3r" d="M522.44 107.52c-.63.33-1.9.67-3.53.67-3.76 0-6.6-2.5-6.6-7.1 0-4.4 2.84-7.38 6.98-7.38 1.67 0 2.72.37 3.17.62l-.41 1.48a6.02 6.02 0 0 0-2.7-.58c-3.13 0-5.22 2.1-5.22 5.8 0 3.43 1.89 5.64 5.14 5.64 1.05 0 2.12-.23 2.82-.59z"/><path id="zvt3s" d="M525.33 101.03c0 3 1.64 5.68 4.51 5.68 2.9 0 4.53-2.64 4.53-5.82 0-2.79-1.47-5.7-4.5-5.7-3.03 0-4.54 2.76-4.54 5.84m10.97-.23c0 4.83-2.96 7.39-6.56 7.39-3.74 0-6.36-2.87-6.36-7.12 0-4.45 2.79-7.36 6.57-7.36 3.86 0 6.35 2.93 6.35 7.1"/><path id="zvt3t" d="M539.08 107.28V93.71h1.9l4.34 6.87c1 1.59 1.79 3.02 2.43 4.4l.04-.01a60.3 60.3 0 0 1-.2-5.58V93.7h1.64v13.57h-1.76l-4.3-6.89a42.94 42.94 0 0 1-2.52-4.53l-.07.02c.1 1.72.15 3.35.15 5.6v5.8z"/><path id="zvt3u" d="M552.45 105.77c.8.5 1.95.92 3.18.92 1.8 0 2.87-.98 2.87-2.4 0-1.31-.74-2.06-2.59-2.79-2.24-.81-3.62-2-3.62-3.98 0-2.19 1.77-3.81 4.43-3.81 1.4 0 2.43.33 3.04.69l-.49 1.48a5.37 5.37 0 0 0-2.6-.67c-1.88 0-2.6 1.14-2.6 2.1 0 1.32.84 1.96 2.74 2.71 2.32.92 3.5 2.06 3.5 4.13 0 2.16-1.57 4.04-4.8 4.04-1.33 0-2.78-.4-3.51-.9z"/><path id="zvt3v" d="M565.4 95.2h-4.17v-1.49h10.15v1.49h-4.19v12.08h-1.79z"/><path id="zvt3w" d="M574.14 100.12H576c1.96 0 3.2-1.02 3.2-2.55 0-1.74-1.33-2.5-3.26-2.52-.89 0-1.52.08-1.81.16zM572.3 94c.92-.18 2.25-.28 3.51-.28 1.96 0 3.22.34 4.1 1.1.72.6 1.12 1.52 1.12 2.56 0 1.78-1.18 2.96-2.67 3.44v.06c1.09.36 1.74 1.32 2.08 2.71.46 1.88.8 3.18 1.1 3.7h-1.9c-.23-.38-.55-1.54-.95-3.22-.42-1.85-1.18-2.55-2.84-2.61h-1.72v5.83h-1.83z"/><path id="zvt3x" d="M592.9 91h-2.22l-1.95 2.37h1.5zm-7.57 10.15c0-3.03 1.51-5.75 4.53-5.75 3.04 0 4.51 2.87 4.51 5.6 0 3.14-1.63 5.74-4.53 5.74-2.87 0-4.5-2.64-4.5-5.59zm10.97-.22c0-4.1-2.5-6.98-6.35-6.98-3.78 0-6.57 2.86-6.57 7.24 0 4.18 2.62 7 6.36 7 3.6 0 6.56-2.52 6.56-7.26z"/><path id="zvt3y" d="M598.15 107.28V93.71H600v13.57z"/></defs><g><g transform="translate(-372 -50)"><g><g><use fill="#fff" xlink:href="#zvt3a"/></g><g><use fill="#fff" xlink:href="#zvt3b"/></g><g><use fill="#fff" xlink:href="#zvt3c"/></g><g><use fill="#fff" xlink:href="#zvt3d"/></g><g><use fill="#fff" xlink:href="#zvt3e"/></g><g><use fill="#fff" xlink:href="#zvt3f"/></g></g><g><g><use fill="#fff" xlink:href="#zvt3g"/></g><g><use fill="#fff" xlink:href="#zvt3h"/></g><g><use fill="#fff" xlink:href="#zvt3i"/></g><g><use fill="#fff" xlink:href="#zvt3j"/></g><g><use fill="#fff" xlink:href="#zvt3k"/></g><g><use fill="#fff" xlink:href="#zvt3l"/></g><g><use fill="#fff" xlink:href="#zvt3m"/></g><g><use fill="#fff" xlink:href="#zvt3n"/></g><g><use fill="#fff" xlink:href="#zvt3o"/></g><g><use fill="#fff" xlink:href="#zvt3p"/></g><g><use fill="#fff" xlink:href="#zvt3q"/></g><g><use fill="#fff" xlink:href="#zvt3r"/></g><g><use fill="#fff" xlink:href="#zvt3s"/></g><g><use fill="#fff" xlink:href="#zvt3t"/></g><g><use fill="#fff" xlink:href="#zvt3u"/></g><g><use fill="#fff" xlink:href="#zvt3v"/></g><g><use fill="#fff" xlink:href="#zvt3w"/></g><g><use fill="#fff" xlink:href="#zvt3x"/></g><g><use fill="#fff" xlink:href="#zvt3y"/></g></g></g></g></svg>